<svg xmlns="http://www.w3.org/2000/svg" viewBox="0 0 720 380">
  <rect width="720" height="380" fill="#F5F3EF"/>

  <!-- Background decorative circles -->
  <circle cx="148" cy="108" r="88" fill="#E84827" opacity="0.05"/>
  <circle cx="578" cy="272" r="110" fill="#0BBFB0" opacity="0.05"/>
  <circle cx="564" cy="96" r="56" fill="#E84827" opacity="0.07"/>
  <circle cx="170" cy="280" r="64" fill="#0BBFB0" opacity="0.07"/>

  <!-- Center lightbulb -->
  <!-- Outer glow -->
  <circle cx="360" cy="162" r="96" fill="#FEF0ED" opacity="0.5"/>
  <!-- Bulb circle -->
  <circle cx="360" cy="150" r="72" fill="white" stroke="#E8E4DE" stroke-width="2"/>
  <!-- Inner warm glow -->
  <circle cx="360" cy="150" r="50" fill="#FEF0ED"/>
  <!-- Core light -->
  <circle cx="360" cy="150" r="30" fill="#E84827" opacity="0.92"/>
  <!-- Filament lines -->
  <path d="M350,150 Q355,140 360,150 Q365,160 370,150" stroke="white" stroke-width="2" fill="none" stroke-linecap="round"/>

  <!-- Light rays -->
  <line x1="360" y1="66" x2="360" y2="48" stroke="#E84827" stroke-width="3" stroke-linecap="round" opacity="0.55"/>
  <line x1="410" y1="80" x2="422" y2="66" stroke="#E84827" stroke-width="3" stroke-linecap="round" opacity="0.55"/>
  <line x1="442" y1="126" x2="458" y2="118" stroke="#E84827" stroke-width="3" stroke-linecap="round" opacity="0.55"/>
  <line x1="310" y1="80" x2="298" y2="66" stroke="#E84827" stroke-width="3" stroke-linecap="round" opacity="0.55"/>
  <line x1="278" y1="126" x2="262" y2="118" stroke="#E84827" stroke-width="3" stroke-linecap="round" opacity="0.55"/>
  <line x1="278" y1="176" x2="262" y2="184" stroke="#E84827" stroke-width="2.5" stroke-linecap="round" opacity="0.3"/>
  <line x1="442" y1="176" x2="458" y2="184" stroke="#E84827" stroke-width="2.5" stroke-linecap="round" opacity="0.3"/>

  <!-- Bulb base -->
  <rect x="336" y="216" width="48" height="12" rx="3" fill="#E8E4DE"/>
  <rect x="340" y="230" width="40" height="10" rx="3" fill="#E8E4DE"/>
  <rect x="344" y="242" width="32" height="10" rx="3" fill="#D4D0C9"/>

  <!-- Left tip card -->
  <rect x="76" y="120" width="182" height="64" rx="8" fill="white" stroke="#E8E4DE" stroke-width="1.5"/>
  <circle cx="106" cy="152" r="16" fill="#FEF0ED"/>
  <line x1="98" y1="152" x2="114" y2="152" stroke="#E84827" stroke-width="2" stroke-linecap="round"/>
  <line x1="106" y1="144" x2="106" y2="160" stroke="#E84827" stroke-width="2" stroke-linecap="round"/>
  <text x="130" y="147" font-family="system-ui, sans-serif" font-size="13" fill="#111110" font-weight="600">Tip rápido</text>
  <text x="130" y="165" font-family="system-ui, sans-serif" font-size="11" fill="#706C66">Configura la calidad</text>

  <!-- Right tip card -->
  <rect x="462" y="120" width="182" height="64" rx="8" fill="white" stroke="#E8E4DE" stroke-width="1.5"/>
  <circle cx="492" cy="152" r="16" fill="#EEF8F2"/>
  <line x1="484" y1="152" x2="500" y2="152" stroke="#5A9E7A" stroke-width="2" stroke-linecap="round"/>
  <line x1="492" y1="144" x2="492" y2="160" stroke="#5A9E7A" stroke-width="2" stroke-linecap="round"/>
  <text x="516" y="147" font-family="system-ui, sans-serif" font-size="13" fill="#111110" font-weight="600">Sabías que...</text>
  <text x="516" y="165" font-family="system-ui, sans-serif" font-size="11" fill="#706C66">WebP es 30% menor</text>

  <!-- Bottom center card -->
  <rect x="236" y="272" width="248" height="64" rx="8" fill="white" stroke="#E8E4DE" stroke-width="1.5"/>
  <circle cx="266" cy="304" r="16" fill="#FEF0ED"/>
  <text x="266" y="310" font-family="system-ui, sans-serif" font-size="16" fill="#E84827" text-anchor="middle" font-weight="800">!</text>
  <text x="296" y="299" font-family="system-ui, sans-serif" font-size="13" fill="#111110" font-weight="600">Guía paso a paso</text>
  <text x="296" y="317" font-family="system-ui, sans-serif" font-size="11" fill="#706C66">Aprende con ejemplos reales</text>

  <!-- Small decorative stars -->
  <circle cx="200" cy="60" r="3" fill="#E84827" opacity="0.5"/>
  <circle cx="520" cy="50" r="4" fill="#0BBFB0" opacity="0.5"/>
  <circle cx="620" cy="160" r="3" fill="#E84827" opacity="0.4"/>
  <circle cx="100" cy="230" r="3" fill="#0BBFB0" opacity="0.4"/>
</svg>
