<svg xmlns="http://www.w3.org/2000/svg" viewBox="0 0 720 380">
  <rect width="720" height="380" fill="#F5F3EF"/>
  <pattern id="dots" x="0" y="0" width="20" height="20" patternUnits="userSpaceOnUse">
    <circle cx="10" cy="10" r="1" fill="#E8E4DE"/>
  </pattern>
  <rect width="720" height="380" fill="url(#dots)"/>

  <!-- Document stack: page 3 (back) -->
  <rect x="272" y="108" width="186" height="230" rx="6" fill="#E8E4DE"/>
  <!-- Page 2 (middle) -->
  <rect x="258" y="96" width="186" height="230" rx="6" fill="white" stroke="#E8E4DE" stroke-width="1.5"/>
  <!-- Page 1 (front) -->
  <rect x="244" y="84" width="186" height="230" rx="6" fill="white" stroke="#D4D0C9" stroke-width="2"/>

  <!-- Corner fold front page -->
  <polygon points="392,84 430,84 430,118" fill="#F0EDE6"/>
  <polygon points="392,84 392,118 430,118" fill="#E8E4DE"/>

  <!-- PDF badge -->
  <rect x="254" y="94" width="54" height="26" rx="4" fill="#E84827"/>
  <text x="281" y="112" font-family="system-ui, sans-serif" font-size="13" fill="white" text-anchor="middle" font-weight="800">PDF</text>

  <!-- Content lines front page -->
  <rect x="258" y="136" width="138" height="8" rx="4" fill="#E8E4DE"/>
  <rect x="258" y="154" width="118" height="8" rx="4" fill="#E8E4DE"/>
  <rect x="258" y="172" width="152" height="8" rx="4" fill="#E8E4DE"/>
  <rect x="258" y="190" width="102" height="8" rx="4" fill="#E8E4DE"/>
  <line x1="258" y1="212" x2="420" y2="212" stroke="#E8E4DE" stroke-width="1.5"/>
  <rect x="258" y="224" width="128" height="8" rx="4" fill="#E8E4DE"/>
  <rect x="258" y="242" width="144" height="8" rx="4" fill="#E8E4DE"/>
  <rect x="258" y="260" width="98" height="8" rx="4" fill="#E8E4DE"/>
  <text x="418" y="308" font-family="system-ui, sans-serif" font-size="11" fill="#A8A49E" text-anchor="end">3 / 12</text>

  <!-- Tools panel -->
  <rect x="490" y="96" width="162" height="218" rx="10" fill="white" stroke="#E8E4DE" stroke-width="1.5"/>

  <!-- Tool items -->
  <circle cx="514" cy="128" r="12" fill="#FEF0ED"/>
  <path d="M508,128 L513,133 L521,122" stroke="#E84827" stroke-width="2" stroke-linecap="round" stroke-linejoin="round" fill="none"/>
  <text x="532" y="132" font-family="system-ui, sans-serif" font-size="12" fill="#111110" font-weight="500">Comprimir</text>

  <line x1="504" y1="148" x2="643" y2="148" stroke="#F5F3EF" stroke-width="1.5"/>

  <circle cx="514" cy="168" r="12" fill="#FEF0ED"/>
  <path d="M508,168 L513,173 L521,162" stroke="#E84827" stroke-width="2" stroke-linecap="round" stroke-linejoin="round" fill="none"/>
  <text x="532" y="172" font-family="system-ui, sans-serif" font-size="12" fill="#111110" font-weight="500">Unir PDFs</text>

  <line x1="504" y1="188" x2="643" y2="188" stroke="#F5F3EF" stroke-width="1.5"/>

  <circle cx="514" cy="208" r="12" fill="#FEF0ED"/>
  <path d="M508,208 L513,213 L521,202" stroke="#E84827" stroke-width="2" stroke-linecap="round" stroke-linejoin="round" fill="none"/>
  <text x="532" y="212" font-family="system-ui, sans-serif" font-size="12" fill="#111110" font-weight="500">PDF a JPG</text>

  <line x1="504" y1="228" x2="643" y2="228" stroke="#F5F3EF" stroke-width="1.5"/>

  <circle cx="514" cy="248" r="12" fill="#FEF0ED"/>
  <path d="M508,248 L513,253 L521,242" stroke="#E84827" stroke-width="2" stroke-linecap="round" stroke-linejoin="round" fill="none"/>
  <text x="532" y="252" font-family="system-ui, sans-serif" font-size="12" fill="#111110" font-weight="500">Proteger</text>

  <line x1="504" y1="268" x2="643" y2="268" stroke="#F5F3EF" stroke-width="1.5"/>

  <circle cx="514" cy="288" r="12" fill="#EEF8F2"/>
  <line x1="514" y1="281" x2="514" y2="295" stroke="#5A9E7A" stroke-width="2" stroke-linecap="round"/>
  <line x1="507" y1="288" x2="521" y2="288" stroke="#5A9E7A" stroke-width="2" stroke-linecap="round"/>
  <text x="532" y="292" font-family="system-ui, sans-serif" font-size="12" fill="#A8A49E">Ver todas...</text>
</svg>
