<svg xmlns="http://www.w3.org/2000/svg" viewBox="0 0 720 380">
  <!-- Dark background -->
  <rect width="720" height="380" fill="#111110"/>

  <!-- Subtle grid -->
  <pattern id="grid" x="0" y="0" width="40" height="40" patternUnits="userSpaceOnUse">
    <path d="M 40 0 L 0 0 0 40" fill="none" stroke="#1A1918" stroke-width="1"/>
  </pattern>
  <rect width="720" height="380" fill="url(#grid)"/>

  <!-- Film strip top -->
  <rect x="0" y="28" width="720" height="58" fill="#1E1D1C"/>
  <rect x="0" y="28" width="720" height="1" fill="#2A2928"/>
  <rect x="0" y="85" width="720" height="1" fill="#2A2928"/>
  <!-- Holes top row -->
  <rect x="14" y="38" width="16" height="10" rx="2" fill="#111110"/>
  <rect x="54" y="38" width="16" height="10" rx="2" fill="#111110"/>
  <rect x="94" y="38" width="16" height="10" rx="2" fill="#111110"/>
  <rect x="134" y="38" width="16" height="10" rx="2" fill="#111110"/>
  <rect x="174" y="38" width="16" height="10" rx="2" fill="#111110"/>
  <rect x="214" y="38" width="16" height="10" rx="2" fill="#111110"/>
  <rect x="254" y="38" width="16" height="10" rx="2" fill="#111110"/>
  <rect x="294" y="38" width="16" height="10" rx="2" fill="#111110"/>
  <rect x="334" y="38" width="16" height="10" rx="2" fill="#111110"/>
  <rect x="374" y="38" width="16" height="10" rx="2" fill="#111110"/>
  <rect x="414" y="38" width="16" height="10" rx="2" fill="#111110"/>
  <rect x="454" y="38" width="16" height="10" rx="2" fill="#111110"/>
  <rect x="494" y="38" width="16" height="10" rx="2" fill="#111110"/>
  <rect x="534" y="38" width="16" height="10" rx="2" fill="#111110"/>
  <rect x="574" y="38" width="16" height="10" rx="2" fill="#111110"/>
  <rect x="614" y="38" width="16" height="10" rx="2" fill="#111110"/>
  <rect x="654" y="38" width="16" height="10" rx="2" fill="#111110"/>
  <rect x="694" y="38" width="16" height="10" rx="2" fill="#111110"/>
  <!-- Holes bottom row top strip -->
  <rect x="14" y="66" width="16" height="10" rx="2" fill="#111110"/>
  <rect x="54" y="66" width="16" height="10" rx="2" fill="#111110"/>
  <rect x="94" y="66" width="16" height="10" rx="2" fill="#111110"/>
  <rect x="134" y="66" width="16" height="10" rx="2" fill="#111110"/>
  <rect x="174" y="66" width="16" height="10" rx="2" fill="#111110"/>
  <rect x="214" y="66" width="16" height="10" rx="2" fill="#111110"/>
  <rect x="254" y="66" width="16" height="10" rx="2" fill="#111110"/>
  <rect x="294" y="66" width="16" height="10" rx="2" fill="#111110"/>
  <rect x="334" y="66" width="16" height="10" rx="2" fill="#111110"/>
  <rect x="374" y="66" width="16" height="10" rx="2" fill="#111110"/>
  <rect x="414" y="66" width="16" height="10" rx="2" fill="#111110"/>

  <!-- Film strip bottom -->
  <rect x="0" y="294" width="720" height="58" fill="#1E1D1C"/>
  <rect x="0" y="294" width="720" height="1" fill="#2A2928"/>
  <rect x="0" y="351" width="720" height="1" fill="#2A2928"/>
  <!-- Holes bottom strip -->
  <rect x="14" y="304" width="16" height="10" rx="2" fill="#111110"/>
  <rect x="54" y="304" width="16" height="10" rx="2" fill="#111110"/>
  <rect x="94" y="304" width="16" height="10" rx="2" fill="#111110"/>
  <rect x="134" y="304" width="16" height="10" rx="2" fill="#111110"/>
  <rect x="174" y="304" width="16" height="10" rx="2" fill="#111110"/>
  <rect x="214" y="304" width="16" height="10" rx="2" fill="#111110"/>
  <rect x="254" y="304" width="16" height="10" rx="2" fill="#111110"/>
  <rect x="294" y="304" width="16" height="10" rx="2" fill="#111110"/>
  <rect x="334" y="304" width="16" height="10" rx="2" fill="#111110"/>
  <rect x="374" y="304" width="16" height="10" rx="2" fill="#111110"/>
  <rect x="414" y="304" width="16" height="10" rx="2" fill="#111110"/>
  <rect x="454" y="304" width="16" height="10" rx="2" fill="#111110"/>
  <rect x="494" y="304" width="16" height="10" rx="2" fill="#111110"/>
  <rect x="534" y="304" width="16" height="10" rx="2" fill="#111110"/>
  <rect x="574" y="304" width="16" height="10" rx="2" fill="#111110"/>
  <rect x="614" y="304" width="16" height="10" rx="2" fill="#111110"/>
  <rect x="654" y="304" width="16" height="10" rx="2" fill="#111110"/>
  <rect x="694" y="304" width="16" height="10" rx="2" fill="#111110"/>
  <rect x="14" y="332" width="16" height="10" rx="2" fill="#111110"/>
  <rect x="54" y="332" width="16" height="10" rx="2" fill="#111110"/>
  <rect x="94" y="332" width="16" height="10" rx="2" fill="#111110"/>
  <rect x="134" y="332" width="16" height="10" rx="2" fill="#111110"/>
  <rect x="174" y="332" width="16" height="10" rx="2" fill="#111110"/>
  <rect x="214" y="332" width="16" height="10" rx="2" fill="#111110"/>

  <!-- Center play button -->
  <circle cx="360" cy="190" r="78" fill="#E84827" opacity="0.15"/>
  <circle cx="360" cy="190" r="58" fill="#E84827"/>
  <!-- Play triangle -->
  <polygon points="349,168 349,212 392,190" fill="white"/>

  <!-- Format badges left -->
  <rect x="108" y="164" width="82" height="26" rx="13" fill="#0BBFB0" opacity="0.18"/>
  <text x="149" y="182" font-family="system-ui, sans-serif" font-size="11" fill="#0BBFB0" text-anchor="middle" font-weight="600">MP4 · AVI</text>
  <rect x="108" y="200" width="82" height="26" rx="13" fill="#0BBFB0" opacity="0.18"/>
  <text x="149" y="218" font-family="system-ui, sans-serif" font-size="11" fill="#0BBFB0" text-anchor="middle" font-weight="600">MOV · MKV</text>
  <rect x="108" y="236" width="82" height="26" rx="13" fill="#0BBFB0" opacity="0.12"/>
  <text x="149" y="254" font-family="system-ui, sans-serif" font-size="11" fill="#0BBFB0" text-anchor="middle" font-weight="600">WebM · GIF</text>

  <!-- Action badges right -->
  <rect x="530" y="164" width="82" height="26" rx="13" fill="#E84827" opacity="0.18"/>
  <text x="571" y="182" font-family="system-ui, sans-serif" font-size="11" fill="#E84827" text-anchor="middle" font-weight="600">Comprimir</text>
  <rect x="530" y="200" width="82" height="26" rx="13" fill="#E84827" opacity="0.18"/>
  <text x="571" y="218" font-family="system-ui, sans-serif" font-size="11" fill="#E84827" text-anchor="middle" font-weight="600">Convertir</text>
  <rect x="530" y="236" width="82" height="26" rx="13" fill="#E84827" opacity="0.12"/>
  <text x="571" y="254" font-family="system-ui, sans-serif" font-size="11" fill="#E84827" text-anchor="middle" font-weight="600">Recortar</text>
</svg>
